<svg xmlns="http://www.w3.org/2000/svg" width="687.2" height="559" fill="black">
<rect width="100%" height="100%" fill="white" />
<line x1="69.19999999999999" y1="498" x2="669.2" y2="498" stroke="black" stroke-width="1" />
<line x1="69.19999999999999" y1="48" x2="69.19999999999999" y2="498" stroke="black" stroke-width="1" />
<line x1="69.19999999999999" y1="48" x2="669.2" y2="48" stroke="black" stroke-width="1" />
<line x1="669.2" y1="48" x2="669.2" y2="498" stroke="black" stroke-width="1" />
<line x1="189.2" y1="48" x2="189.2" y2="498" stroke="#ccc" stroke-width="1" />
<line x1="309.2" y1="48" x2="309.2" y2="498" stroke="#ccc" stroke-width="1" />
<line x1="429.2" y1="48" x2="429.2" y2="498" stroke="#ccc" stroke-width="1" />
<line x1="549.2" y1="48" x2="549.2" y2="498" stroke="#ccc" stroke-width="1" />
<line x1="669.2" y1="48" x2="669.2" y2="498" stroke="#ccc" stroke-width="1" />
<line x1="69.19999999999999" y1="408" x2="669.2" y2="408" stroke="#ccc" stroke-width="1" />
<line x1="69.19999999999999" y1="318" x2="669.2" y2="318" stroke="#ccc" stroke-width="1" />
<line x1="69.19999999999999" y1="228" x2="669.2" y2="228" stroke="#ccc" stroke-width="1" />
<line x1="69.19999999999999" y1="138" x2="669.2" y2="138" stroke="#ccc" stroke-width="1" />
<line x1="69.19999999999999" y1="48" x2="669.2" y2="48" stroke="#ccc" stroke-width="1" />
<line x1="69.19999999999999" y1="498" x2="69.19999999999999" y2="503" stroke="black" stroke-width="1" />
<text x="69.19999999999999" y="521" font-size="18" text-anchor="middle">0</text>
<line x1="189.2" y1="498" x2="189.2" y2="503" stroke="black" stroke-width="1" />
<text x="189.2" y="521" font-size="18" text-anchor="middle">2.5</text>
<line x1="309.2" y1="498" x2="309.2" y2="503" stroke="black" stroke-width="1" />
<text x="309.2" y="521" font-size="18" text-anchor="middle">5</text>
<line x1="429.2" y1="498" x2="429.2" y2="503" stroke="black" stroke-width="1" />
<text x="429.2" y="521" font-size="18" text-anchor="middle">7.5</text>
<line x1="549.2" y1="498" x2="549.2" y2="503" stroke="black" stroke-width="1" />
<text x="549.2" y="521" font-size="18" text-anchor="middle">10</text>
<line x1="669.2" y1="498" x2="669.2" y2="503" stroke="black" stroke-width="1" />
<text x="669.2" y="521" font-size="18" text-anchor="middle">12.5</text>
<line x1="64.19999999999999" y1="498" x2="69.19999999999999" y2="498" stroke="black" stroke-width="1" />
<text x="61.19999999999999" y="504.3" font-size="18" text-anchor="end">0</text>
<line x1="64.19999999999999" y1="408" x2="69.19999999999999" y2="408" stroke="black" stroke-width="1" />
<text x="61.19999999999999" y="414.3" font-size="18" text-anchor="end">2</text>
<line x1="64.19999999999999" y1="318" x2="69.19999999999999" y2="318" stroke="black" stroke-width="1" />
<text x="61.19999999999999" y="324.3" font-size="18" text-anchor="end">4</text>
<line x1="64.19999999999999" y1="228" x2="69.19999999999999" y2="228" stroke="black" stroke-width="1" />
<text x="61.19999999999999" y="234.3" font-size="18" text-anchor="end">6</text>
<line x1="64.19999999999999" y1="138" x2="69.19999999999999" y2="138" stroke="black" stroke-width="1" />
<text x="61.19999999999999" y="144.3" font-size="18" text-anchor="end">8</text>
<line x1="64.19999999999999" y1="48" x2="69.19999999999999" y2="48" stroke="black" stroke-width="1" />
<text x="61.19999999999999" y="54.3" font-size="18" text-anchor="end">10</text>
<text x="343.6" y="550" font-size="18" text-anchor="middle">Progress Milestones (m)</text>
<text x="18" y="279.5" font-size="18" text-anchor="middle" transform="rotate(-90,18,279.5)">Cumulative Growth (m)</text>
<text x="343.6" y="24" font-size="18" text-anchor="middle">Scatter Plot</text>
<circle cx="93.19999999999999" cy="444" r="5" fill="steelblue" />
<circle cx="136.39999999999998" cy="358.5" r="5" fill="steelblue" />
<circle cx="170" cy="390" r="5" fill="steelblue" />
<circle cx="227.6" cy="273" r="5" fill="steelblue" />
<circle cx="261.2" cy="304.5" r="5" fill="steelblue" />
<circle cx="318.8" cy="192" r="5" fill="steelblue" />
<circle cx="362" cy="228" r="5" fill="steelblue" />
<circle cx="405.20000000000005" cy="115.5" r="5" fill="steelblue" />
<circle cx="472.40000000000003" cy="142.5" r="5" fill="steelblue" />
<circle cx="506" cy="56.99999999999994" r="5" fill="steelblue" />
</svg>
