<svg xmlns="http://www.w3.org/2000/svg" width="679" height="541" fill="black">
<rect width="100%" height="100%" fill="white" />
<line x1="65" y1="492" x2="665" y2="492" stroke="black" stroke-width="1" />
<line x1="65" y1="42" x2="65" y2="492" stroke="black" stroke-width="1" />
<line x1="65" y1="42" x2="665" y2="42" stroke="black" stroke-width="1" />
<line x1="665" y1="42" x2="665" y2="492" stroke="black" stroke-width="1" />
<line x1="185" y1="42" x2="185" y2="492" stroke="#ccc" stroke-width="1" />
<line x1="305" y1="42" x2="305" y2="492" stroke="#ccc" stroke-width="1" />
<line x1="425" y1="42" x2="425" y2="492" stroke="#ccc" stroke-width="1" />
<line x1="545" y1="42" x2="545" y2="492" stroke="#ccc" stroke-width="1" />
<line x1="665" y1="42" x2="665" y2="492" stroke="#ccc" stroke-width="1" />
<line x1="65" y1="402" x2="665" y2="402" stroke="#ccc" stroke-width="1" />
<line x1="65" y1="312" x2="665" y2="312" stroke="#ccc" stroke-width="1" />
<line x1="65" y1="222" x2="665" y2="222" stroke="#ccc" stroke-width="1" />
<line x1="65" y1="132" x2="665" y2="132" stroke="#ccc" stroke-width="1" />
<line x1="65" y1="42" x2="665" y2="42" stroke="#ccc" stroke-width="1" />
<line x1="65" y1="492" x2="65" y2="497" stroke="black" stroke-width="1" />
<text x="65" y="507" font-size="10" text-anchor="middle">0</text>
<line x1="185" y1="492" x2="185" y2="497" stroke="black" stroke-width="1" />
<text x="185" y="507" font-size="10" text-anchor="middle">2</text>
<line x1="305" y1="492" x2="305" y2="497" stroke="black" stroke-width="1" />
<text x="305" y="507" font-size="10" text-anchor="middle">4</text>
<line x1="425" y1="492" x2="425" y2="497" stroke="black" stroke-width="1" />
<text x="425" y="507" font-size="10" text-anchor="middle">6</text>
<line x1="545" y1="492" x2="545" y2="497" stroke="black" stroke-width="1" />
<text x="545" y="507" font-size="10" text-anchor="middle">8</text>
<line x1="665" y1="492" x2="665" y2="497" stroke="black" stroke-width="1" />
<text x="665" y="507" font-size="10" text-anchor="middle">10</text>
<line x1="60" y1="492" x2="65" y2="492" stroke="black" stroke-width="1" />
<text x="57" y="495.5" font-size="10" text-anchor="end">0</text>
<line x1="60" y1="402" x2="65" y2="402" stroke="black" stroke-width="1" />
<text x="57" y="405.5" font-size="10" text-anchor="end">2</text>
<line x1="60" y1="312" x2="65" y2="312" stroke="black" stroke-width="1" />
<text x="57" y="315.5" font-size="10" text-anchor="end">4</text>
<line x1="60" y1="222" x2="65" y2="222" stroke="black" stroke-width="1" />
<text x="57" y="225.5" font-size="10" text-anchor="end">6</text>
<line x1="60" y1="132" x2="65" y2="132" stroke="black" stroke-width="1" />
<text x="57" y="135.5" font-size="10" text-anchor="end">8</text>
<line x1="60" y1="42" x2="65" y2="42" stroke="black" stroke-width="1" />
<text x="57" y="45.5" font-size="10" text-anchor="end">10</text>
<text x="339.5" y="534" font-size="14" text-anchor="middle">Progress Milestones (m)</text>
<text x="14" y="270.5" font-size="14" text-anchor="middle" transform="rotate(-90,14,270.5)">Cumulative Growth (m)</text>
<text x="339.5" y="21" font-size="16" text-anchor="middle">Scatter Plot</text>
<circle cx="95" cy="438" r="5" fill="steelblue" />
<circle cx="149" cy="352.5" r="5" fill="steelblue" />
<circle cx="191" cy="384" r="5" fill="steelblue" />
<circle cx="263" cy="267" r="5" fill="steelblue" />
<circle cx="305" cy="298.5" r="5" fill="steelblue" />
<circle cx="377" cy="186" r="5" fill="steelblue" />
<circle cx="431" cy="222" r="5" fill="steelblue" />
<circle cx="485" cy="109.5" r="5" fill="steelblue" />
<circle cx="569" cy="136.5" r="5" fill="steelblue" />
<circle cx="611" cy="50.99999999999994" r="5" fill="steelblue" />
</svg>
