<svg xmlns="http://www.w3.org/2000/svg" width="679" height="541" fill="black">
<rect width="100%" height="100%" fill="white" />
<line x1="65" y1="492" x2="665" y2="492" stroke="black" stroke-width="1" />
<line x1="65" y1="42" x2="65" y2="492" stroke="black" stroke-width="1" />
<line x1="65" y1="42" x2="665" y2="42" stroke="black" stroke-width="1" />
<line x1="665" y1="42" x2="665" y2="492" stroke="black" stroke-width="1" />
<line x1="185" y1="42" x2="185" y2="492" stroke="#ccc" stroke-width="1" />
<line x1="305" y1="42" x2="305" y2="492" stroke="#ccc" stroke-width="1" />
<line x1="425" y1="42" x2="425" y2="492" stroke="#ccc" stroke-width="1" />
<line x1="545" y1="42" x2="545" y2="492" stroke="#ccc" stroke-width="1" />
<line x1="665" y1="42" x2="665" y2="492" stroke="#ccc" stroke-width="1" />
<line x1="65" y1="402" x2="665" y2="402" stroke="#ccc" stroke-width="1" />
<line x1="65" y1="312" x2="665" y2="312" stroke="#ccc" stroke-width="1" />
<line x1="65" y1="222" x2="665" y2="222" stroke="#ccc" stroke-width="1" />
<line x1="65" y1="132" x2="665" y2="132" stroke="#ccc" stroke-width="1" />
<line x1="65" y1="42" x2="665" y2="42" stroke="#ccc" stroke-width="1" />
<line x1="65" y1="492" x2="65" y2="497" stroke="black" stroke-width="1" />
<text x="65" y="507" font-size="10" text-anchor="middle">0</text>
<line x1="185" y1="492" x2="185" y2="497" stroke="black" stroke-width="1" />
<text x="185" y="507" font-size="10" text-anchor="middle">2</text>
<line x1="305" y1="492" x2="305" y2="497" stroke="black" stroke-width="1" />
<text x="305" y="507" font-size="10" text-anchor="middle">4</text>
<line x1="425" y1="492" x2="425" y2="497" stroke="black" stroke-width="1" />
<text x="425" y="507" font-size="10" text-anchor="middle">6</text>
<line x1="545" y1="492" x2="545" y2="497" stroke="black" stroke-width="1" />
<text x="545" y="507" font-size="10" text-anchor="middle">8</text>
<line x1="665" y1="492" x2="665" y2="497" stroke="black" stroke-width="1" />
<text x="665" y="507" font-size="10" text-anchor="middle">10</text>
<line x1="60" y1="492" x2="65" y2="492" stroke="black" stroke-width="1" />
<text x="57" y="495.5" font-size="10" text-anchor="end">0</text>
<line x1="60" y1="402" x2="65" y2="402" stroke="black" stroke-width="1" />
<text x="57" y="405.5" font-size="10" text-anchor="end">2</text>
<line x1="60" y1="312" x2="65" y2="312" stroke="black" stroke-width="1" />
<text x="57" y="315.5" font-size="10" text-anchor="end">4</text>
<line x1="60" y1="222" x2="65" y2="222" stroke="black" stroke-width="1" />
<text x="57" y="225.5" font-size="10" text-anchor="end">6</text>
<line x1="60" y1="132" x2="65" y2="132" stroke="black" stroke-width="1" />
<text x="57" y="135.5" font-size="10" text-anchor="end">8</text>
<line x1="60" y1="42" x2="65" y2="42" stroke="black" stroke-width="1" />
<text x="57" y="45.5" font-size="10" text-anchor="end">10</text>
<text x="339.5" y="534" font-size="14" text-anchor="middle">X</text>
<text x="14" y="270.5" font-size="14" text-anchor="middle" transform="rotate(-90,14,270.5)">Y</text>
<text x="339.5" y="21" font-size="16" text-anchor="middle">Bubble Plot</text>
<circle cx="125" cy="357" r="5" fill="steelblue" />
<circle cx="215" cy="199.5" r="14" fill="steelblue" />
<circle cx="305" cy="312" r="9" fill="steelblue" />
<circle cx="395" cy="132" r="18" fill="steelblue" />
<circle cx="485" cy="244.49999999999997" r="11" fill="steelblue" />
<circle cx="575" cy="87" r="7" fill="steelblue" />
</svg>
