<svg xmlns="http://www.w3.org/2000/svg" width="687.2" height="559" fill="black">
<rect width="100%" height="100%" fill="white" />
<line x1="69.19999999999999" y1="498" x2="669.2" y2="498" stroke="black" stroke-width="1" />
<line x1="69.19999999999999" y1="48" x2="69.19999999999999" y2="498" stroke="black" stroke-width="1" />
<line x1="69.19999999999999" y1="48" x2="669.2" y2="48" stroke="black" stroke-width="1" />
<line x1="669.2" y1="48" x2="669.2" y2="498" stroke="black" stroke-width="1" />
<line x1="189.2" y1="48" x2="189.2" y2="498" stroke="#ccc" stroke-width="1" />
<line x1="309.2" y1="48" x2="309.2" y2="498" stroke="#ccc" stroke-width="1" />
<line x1="429.2" y1="48" x2="429.2" y2="498" stroke="#ccc" stroke-width="1" />
<line x1="549.2" y1="48" x2="549.2" y2="498" stroke="#ccc" stroke-width="1" />
<line x1="669.2" y1="48" x2="669.2" y2="498" stroke="#ccc" stroke-width="1" />
<line x1="69.19999999999999" y1="385.5" x2="669.2" y2="385.5" stroke="#ccc" stroke-width="1" />
<line x1="69.19999999999999" y1="273" x2="669.2" y2="273" stroke="#ccc" stroke-width="1" />
<line x1="69.19999999999999" y1="160.5" x2="669.2" y2="160.5" stroke="#ccc" stroke-width="1" />
<line x1="69.19999999999999" y1="48" x2="669.2" y2="48" stroke="#ccc" stroke-width="1" />
<line x1="69.19999999999999" y1="498" x2="69.19999999999999" y2="503" stroke="black" stroke-width="1" />
<text x="69.19999999999999" y="521" font-size="18" text-anchor="middle">0</text>
<line x1="189.2" y1="498" x2="189.2" y2="503" stroke="black" stroke-width="1" />
<text x="189.2" y="521" font-size="18" text-anchor="middle">2.5</text>
<line x1="309.2" y1="498" x2="309.2" y2="503" stroke="black" stroke-width="1" />
<text x="309.2" y="521" font-size="18" text-anchor="middle">5</text>
<line x1="429.2" y1="498" x2="429.2" y2="503" stroke="black" stroke-width="1" />
<text x="429.2" y="521" font-size="18" text-anchor="middle">7.5</text>
<line x1="549.2" y1="498" x2="549.2" y2="503" stroke="black" stroke-width="1" />
<text x="549.2" y="521" font-size="18" text-anchor="middle">10</text>
<line x1="669.2" y1="498" x2="669.2" y2="503" stroke="black" stroke-width="1" />
<text x="669.2" y="521" font-size="18" text-anchor="middle">12.5</text>
<line x1="64.19999999999999" y1="498" x2="69.19999999999999" y2="498" stroke="black" stroke-width="1" />
<text x="61.19999999999999" y="504.3" font-size="18" text-anchor="end">0</text>
<line x1="64.19999999999999" y1="385.5" x2="69.19999999999999" y2="385.5" stroke="black" stroke-width="1" />
<text x="61.19999999999999" y="391.8" font-size="18" text-anchor="end">5</text>
<line x1="64.19999999999999" y1="273" x2="69.19999999999999" y2="273" stroke="black" stroke-width="1" />
<text x="61.19999999999999" y="279.3" font-size="18" text-anchor="end">10</text>
<line x1="64.19999999999999" y1="160.5" x2="69.19999999999999" y2="160.5" stroke="black" stroke-width="1" />
<text x="61.19999999999999" y="166.8" font-size="18" text-anchor="end">15</text>
<line x1="64.19999999999999" y1="48" x2="69.19999999999999" y2="48" stroke="black" stroke-width="1" />
<text x="61.19999999999999" y="54.3" font-size="18" text-anchor="end">20</text>
<text x="343.6" y="550" font-size="18" text-anchor="middle">Progress Milestones (m)</text>
<text x="18" y="279.5" font-size="18" text-anchor="middle" transform="rotate(-90,18,279.5)">Cumulative Growth (m)</text>
<text x="343.6" y="24" font-size="18" text-anchor="middle">Confidence Band</text>
<path d="M 117.19999999999999 419.25 L 165.2 378.75 L 213.2 338.25 L 261.2 297.75 L 309.2 257.25 L 357.2 216.75 L 405.20000000000005 176.25 L 453.2 135.75 L 501.2 95.25000000000006 L 549.2 54.75 L 549.2 108.75 L 501.2 149.25 L 453.2 189.75 L 405.20000000000005 230.25 L 357.2 270.74999999999994 L 309.2 311.25 L 261.2 351.75 L 213.2 392.25 L 165.2 432.75 L 117.19999999999999 473.25 Z" stroke="none" stroke-width="0" fill="steelblue" fill-opacity="0.2" />
<circle cx="117.19999999999999" cy="446.25" r="5" fill="steelblue" />
<circle cx="165.2" cy="405.75" r="5" fill="steelblue" />
<circle cx="213.2" cy="365.25" r="5" fill="steelblue" />
<circle cx="261.2" cy="324.75" r="5" fill="steelblue" />
<circle cx="309.2" cy="284.25" r="5" fill="steelblue" />
<circle cx="357.2" cy="243.74999999999997" r="5" fill="steelblue" />
<circle cx="405.20000000000005" cy="203.25" r="5" fill="steelblue" />
<circle cx="453.2" cy="162.75" r="5" fill="steelblue" />
<circle cx="501.2" cy="122.25" r="5" fill="steelblue" />
<circle cx="549.2" cy="81.75" r="5" fill="steelblue" />
</svg>
