<svg xmlns="http://www.w3.org/2000/svg" width="720" height="570" fill="black">
<rect width="100%" height="100%" fill="white" />
<line x1="80" y1="500" x2="680" y2="500" stroke="black" stroke-width="1" />
<line x1="80" y1="50" x2="80" y2="500" stroke="black" stroke-width="1" />
<line x1="80" y1="50" x2="680" y2="50" stroke="black" stroke-width="1" />
<line x1="680" y1="50" x2="680" y2="500" stroke="black" stroke-width="1" />
<line x1="180" y1="50" x2="180" y2="500" stroke="#e0e0e0" stroke-width="1" />
<line x1="280" y1="50" x2="280" y2="500" stroke="#e0e0e0" stroke-width="1" />
<line x1="380" y1="50" x2="380" y2="500" stroke="#e0e0e0" stroke-width="1" />
<line x1="480" y1="50" x2="480" y2="500" stroke="#e0e0e0" stroke-width="1" />
<line x1="580" y1="50" x2="580" y2="500" stroke="#e0e0e0" stroke-width="1" />
<line x1="680" y1="50" x2="680" y2="500" stroke="#e0e0e0" stroke-width="1" />
<line x1="80" y1="410" x2="680" y2="410" stroke="#e0e0e0" stroke-width="1" />
<line x1="80" y1="320" x2="680" y2="320" stroke="#e0e0e0" stroke-width="1" />
<line x1="80" y1="230" x2="680" y2="230" stroke="#e0e0e0" stroke-width="1" />
<line x1="80" y1="140" x2="680" y2="140" stroke="#e0e0e0" stroke-width="1" />
<line x1="80" y1="50" x2="680" y2="50" stroke="#e0e0e0" stroke-width="1" />
<line x1="80" y1="500" x2="80" y2="505" stroke="black" stroke-width="1" />
<text x="80" y="523" font-size="18" text-anchor="middle">0</text>
<line x1="180" y1="500" x2="180" y2="505" stroke="black" stroke-width="1" />
<text x="180" y="523" font-size="18" text-anchor="middle">2</text>
<line x1="280" y1="500" x2="280" y2="505" stroke="black" stroke-width="1" />
<text x="280" y="523" font-size="18" text-anchor="middle">4</text>
<line x1="380" y1="500" x2="380" y2="505" stroke="black" stroke-width="1" />
<text x="380" y="523" font-size="18" text-anchor="middle">6</text>
<line x1="480" y1="500" x2="480" y2="505" stroke="black" stroke-width="1" />
<text x="480" y="523" font-size="18" text-anchor="middle">8</text>
<line x1="580" y1="500" x2="580" y2="505" stroke="black" stroke-width="1" />
<text x="580" y="523" font-size="18" text-anchor="middle">10</text>
<line x1="680" y1="500" x2="680" y2="505" stroke="black" stroke-width="1" />
<text x="680" y="523" font-size="18" text-anchor="middle">12</text>
<line x1="75" y1="500" x2="80" y2="500" stroke="black" stroke-width="1" />
<text x="72" y="506.3" font-size="18" text-anchor="end">0</text>
<line x1="75" y1="410" x2="80" y2="410" stroke="black" stroke-width="1" />
<text x="72" y="416.3" font-size="18" text-anchor="end">5</text>
<line x1="75" y1="320" x2="80" y2="320" stroke="black" stroke-width="1" />
<text x="72" y="326.3" font-size="18" text-anchor="end">10</text>
<line x1="75" y1="230" x2="80" y2="230" stroke="black" stroke-width="1" />
<text x="72" y="236.3" font-size="18" text-anchor="end">15</text>
<line x1="75" y1="140" x2="80" y2="140" stroke="black" stroke-width="1" />
<text x="72" y="146.3" font-size="18" text-anchor="end">20</text>
<line x1="75" y1="50" x2="80" y2="50" stroke="black" stroke-width="1" />
<text x="72" y="56.3" font-size="18" text-anchor="end">25</text>
<text x="360" y="554" font-size="18" text-anchor="middle">Progress Milestones (m)</text>
<text x="35" y="285" font-size="18" text-anchor="middle" transform="rotate(-90,35,285)">Cumulative Growth (m)</text>
<text x="360" y="25" font-size="18" text-anchor="middle">Error Bars</text>
<circle cx="130" cy="464" r="5" fill="steelblue" />
<line x1="120" y1="464" x2="140" y2="464" stroke="steelblue" stroke-width="1" />
<line x1="120" y1="459" x2="120" y2="469" stroke="steelblue" stroke-width="1" />
<line x1="140" y1="459" x2="140" y2="469" stroke="steelblue" stroke-width="1" />
<line x1="130" y1="474.8" x2="130" y2="453.2" stroke="steelblue" stroke-width="1" />
<line x1="125" y1="474.8" x2="135" y2="474.8" stroke="steelblue" stroke-width="1" />
<line x1="125" y1="453.2" x2="135" y2="453.2" stroke="steelblue" stroke-width="1" />
<circle cx="180" cy="419" r="5" fill="steelblue" />
<line x1="172.5" y1="419" x2="187.5" y2="419" stroke="steelblue" stroke-width="1" />
<line x1="172.5" y1="414" x2="172.5" y2="424" stroke="steelblue" stroke-width="1" />
<line x1="187.5" y1="414" x2="187.5" y2="424" stroke="steelblue" stroke-width="1" />
<line x1="180" y1="433.4" x2="180" y2="404.6" stroke="steelblue" stroke-width="1" />
<line x1="175" y1="433.4" x2="185" y2="433.4" stroke="steelblue" stroke-width="1" />
<line x1="175" y1="404.6" x2="185" y2="404.6" stroke="steelblue" stroke-width="1" />
<circle cx="230" cy="395.6" r="5" fill="steelblue" />
<line x1="215" y1="395.6" x2="244.99999999999997" y2="395.6" stroke="steelblue" stroke-width="1" />
<line x1="215" y1="390.6" x2="215" y2="400.6" stroke="steelblue" stroke-width="1" />
<line x1="244.99999999999997" y1="390.6" x2="244.99999999999997" y2="400.6" stroke="steelblue" stroke-width="1" />
<line x1="230" y1="402.8" x2="230" y2="388.4" stroke="steelblue" stroke-width="1" />
<line x1="225" y1="402.8" x2="235" y2="402.8" stroke="steelblue" stroke-width="1" />
<line x1="225" y1="388.4" x2="235" y2="388.4" stroke="steelblue" stroke-width="1" />
<circle cx="280" cy="352.4" r="5" fill="steelblue" />
<line x1="275" y1="352.4" x2="285" y2="352.4" stroke="steelblue" stroke-width="1" />
<line x1="275" y1="347.4" x2="275" y2="357.4" stroke="steelblue" stroke-width="1" />
<line x1="285" y1="347.4" x2="285" y2="357.4" stroke="steelblue" stroke-width="1" />
<line x1="280" y1="368.6" x2="280" y2="336.20000000000005" stroke="steelblue" stroke-width="1" />
<line x1="275" y1="368.6" x2="285" y2="368.6" stroke="steelblue" stroke-width="1" />
<line x1="275" y1="336.20000000000005" x2="285" y2="336.20000000000005" stroke="steelblue" stroke-width="1" />
<circle cx="330" cy="318.20000000000005" r="5" fill="steelblue" />
<line x1="317.5" y1="318.20000000000005" x2="342.5" y2="318.20000000000005" stroke="steelblue" stroke-width="1" />
<line x1="317.5" y1="313.20000000000005" x2="317.5" y2="323.20000000000005" stroke="steelblue" stroke-width="1" />
<line x1="342.5" y1="313.20000000000005" x2="342.5" y2="323.20000000000005" stroke="steelblue" stroke-width="1" />
<line x1="330" y1="327.2" x2="330" y2="309.20000000000005" stroke="steelblue" stroke-width="1" />
<line x1="325" y1="327.2" x2="335" y2="327.2" stroke="steelblue" stroke-width="1" />
<line x1="325" y1="309.20000000000005" x2="335" y2="309.20000000000005" stroke="steelblue" stroke-width="1" />
</svg>
