<svg xmlns="http://www.w3.org/2000/svg" width="679" height="541" fill="black">
<rect width="100%" height="100%" fill="white" />
<line x1="65" y1="492" x2="665" y2="492" stroke="black" stroke-width="1" />
<line x1="65" y1="42" x2="65" y2="492" stroke="black" stroke-width="1" />
<line x1="65" y1="42" x2="665" y2="42" stroke="black" stroke-width="1" />
<line x1="665" y1="42" x2="665" y2="492" stroke="black" stroke-width="1" />
<line x1="165" y1="42" x2="165" y2="492" stroke="#ccc" stroke-width="1" />
<line x1="265" y1="42" x2="265" y2="492" stroke="#ccc" stroke-width="1" />
<line x1="365" y1="42" x2="365" y2="492" stroke="#ccc" stroke-width="1" />
<line x1="465" y1="42" x2="465" y2="492" stroke="#ccc" stroke-width="1" />
<line x1="565" y1="42" x2="565" y2="492" stroke="#ccc" stroke-width="1" />
<line x1="665" y1="42" x2="665" y2="492" stroke="#ccc" stroke-width="1" />
<line x1="65" y1="398.25" x2="665" y2="398.25" stroke="#ccc" stroke-width="1" />
<line x1="65" y1="304.5" x2="665" y2="304.5" stroke="#ccc" stroke-width="1" />
<line x1="65" y1="210.75" x2="665" y2="210.75" stroke="#ccc" stroke-width="1" />
<line x1="65" y1="117" x2="665" y2="117" stroke="#ccc" stroke-width="1" />
<line x1="65" y1="492" x2="65" y2="497" stroke="black" stroke-width="1" />
<text x="65" y="507" font-size="10" text-anchor="middle">0</text>
<line x1="165" y1="492" x2="165" y2="497" stroke="black" stroke-width="1" />
<text x="165" y="507" font-size="10" text-anchor="middle">1</text>
<line x1="265" y1="492" x2="265" y2="497" stroke="black" stroke-width="1" />
<text x="265" y="507" font-size="10" text-anchor="middle">2</text>
<line x1="365" y1="492" x2="365" y2="497" stroke="black" stroke-width="1" />
<text x="365" y="507" font-size="10" text-anchor="middle">3</text>
<line x1="465" y1="492" x2="465" y2="497" stroke="black" stroke-width="1" />
<text x="465" y="507" font-size="10" text-anchor="middle">4</text>
<line x1="565" y1="492" x2="565" y2="497" stroke="black" stroke-width="1" />
<text x="565" y="507" font-size="10" text-anchor="middle">5</text>
<line x1="665" y1="492" x2="665" y2="497" stroke="black" stroke-width="1" />
<text x="665" y="507" font-size="10" text-anchor="middle">6</text>
<line x1="60" y1="492" x2="65" y2="492" stroke="black" stroke-width="1" />
<text x="57" y="495.5" font-size="10" text-anchor="end">0</text>
<line x1="60" y1="398.25" x2="65" y2="398.25" stroke="black" stroke-width="1" />
<text x="57" y="401.75" font-size="10" text-anchor="end">2.5</text>
<line x1="60" y1="304.5" x2="65" y2="304.5" stroke="black" stroke-width="1" />
<text x="57" y="308" font-size="10" text-anchor="end">5</text>
<line x1="60" y1="210.75" x2="65" y2="210.75" stroke="black" stroke-width="1" />
<text x="57" y="214.25" font-size="10" text-anchor="end">7.5</text>
<line x1="60" y1="117" x2="65" y2="117" stroke="black" stroke-width="1" />
<text x="57" y="120.5" font-size="10" text-anchor="end">10</text>
<text x="339.5" y="534" font-size="14" text-anchor="middle">Progress Milestones (m)</text>
<text x="14" y="270.5" font-size="14" text-anchor="middle" transform="rotate(-90,14,270.5)">Cumulative Growth (m)</text>
<text x="339.5" y="21" font-size="16" text-anchor="middle">Error Bars</text>
<circle cx="165" cy="417" r="5" fill="steelblue" />
<line x1="145" y1="417" x2="185" y2="417" stroke="steelblue" stroke-width="1" />
<line x1="145" y1="412" x2="145" y2="422" stroke="steelblue" stroke-width="1" />
<line x1="185" y1="412" x2="185" y2="422" stroke="steelblue" stroke-width="1" />
<line x1="165" y1="439.5" x2="165" y2="394.5" stroke="steelblue" stroke-width="1" />
<line x1="160" y1="439.5" x2="170" y2="439.5" stroke="steelblue" stroke-width="1" />
<line x1="160" y1="394.5" x2="170" y2="394.5" stroke="steelblue" stroke-width="1" />
<circle cx="265" cy="323.25" r="5" fill="steelblue" />
<line x1="250" y1="323.25" x2="280" y2="323.25" stroke="steelblue" stroke-width="1" />
<line x1="250" y1="318.25" x2="250" y2="328.25" stroke="steelblue" stroke-width="1" />
<line x1="280" y1="318.25" x2="280" y2="328.25" stroke="steelblue" stroke-width="1" />
<line x1="265" y1="353.25" x2="265" y2="293.25" stroke="steelblue" stroke-width="1" />
<line x1="260" y1="353.25" x2="270" y2="353.25" stroke="steelblue" stroke-width="1" />
<line x1="260" y1="293.25" x2="270" y2="293.25" stroke="steelblue" stroke-width="1" />
<circle cx="365" cy="274.5" r="5" fill="steelblue" />
<line x1="335" y1="274.5" x2="394.99999999999994" y2="274.5" stroke="steelblue" stroke-width="1" />
<line x1="335" y1="269.5" x2="335" y2="279.5" stroke="steelblue" stroke-width="1" />
<line x1="394.99999999999994" y1="269.5" x2="394.99999999999994" y2="279.5" stroke="steelblue" stroke-width="1" />
<line x1="365" y1="289.5" x2="365" y2="259.5" stroke="steelblue" stroke-width="1" />
<line x1="360" y1="289.5" x2="370" y2="289.5" stroke="steelblue" stroke-width="1" />
<line x1="360" y1="259.5" x2="370" y2="259.5" stroke="steelblue" stroke-width="1" />
<circle cx="465" cy="184.50000000000006" r="5" fill="steelblue" />
<line x1="455" y1="184.50000000000006" x2="474.99999999999994" y2="184.50000000000006" stroke="steelblue" stroke-width="1" />
<line x1="455" y1="179.50000000000006" x2="455" y2="189.50000000000006" stroke="steelblue" stroke-width="1" />
<line x1="474.99999999999994" y1="179.50000000000006" x2="474.99999999999994" y2="189.50000000000006" stroke="steelblue" stroke-width="1" />
<line x1="465" y1="218.25" x2="465" y2="150.75" stroke="steelblue" stroke-width="1" />
<line x1="460" y1="218.25" x2="470" y2="218.25" stroke="steelblue" stroke-width="1" />
<line x1="460" y1="150.75" x2="470" y2="150.75" stroke="steelblue" stroke-width="1" />
<circle cx="565" cy="113.25" r="5" fill="steelblue" />
<line x1="540" y1="113.25" x2="590" y2="113.25" stroke="steelblue" stroke-width="1" />
<line x1="540" y1="108.25" x2="540" y2="118.25" stroke="steelblue" stroke-width="1" />
<line x1="590" y1="108.25" x2="590" y2="118.25" stroke="steelblue" stroke-width="1" />
<line x1="565" y1="132.00000000000006" x2="565" y2="94.5" stroke="steelblue" stroke-width="1" />
<line x1="560" y1="132.00000000000006" x2="570" y2="132.00000000000006" stroke="steelblue" stroke-width="1" />
<line x1="560" y1="94.5" x2="570" y2="94.5" stroke="steelblue" stroke-width="1" />
</svg>
