<svg xmlns="http://www.w3.org/2000/svg" width="770" height="541" fill="black">
<rect width="100%" height="100%" fill="white" />
<line x1="65" y1="492" x2="665" y2="492" stroke="black" stroke-width="1" />
<line x1="65" y1="42" x2="65" y2="492" stroke="black" stroke-width="1" />
<line x1="65" y1="42" x2="665" y2="42" stroke="black" stroke-width="1" />
<line x1="665" y1="42" x2="665" y2="492" stroke="black" stroke-width="1" />
<line x1="150.71428571428572" y1="42" x2="150.71428571428572" y2="492" stroke="#ccc" stroke-width="1" />
<line x1="236.42857142857142" y1="42" x2="236.42857142857142" y2="492" stroke="#ccc" stroke-width="1" />
<line x1="322.1428571428571" y1="42" x2="322.1428571428571" y2="492" stroke="#ccc" stroke-width="1" />
<line x1="407.85714285714283" y1="42" x2="407.85714285714283" y2="492" stroke="#ccc" stroke-width="1" />
<line x1="493.57142857142856" y1="42" x2="493.57142857142856" y2="492" stroke="#ccc" stroke-width="1" />
<line x1="579.2857142857142" y1="42" x2="579.2857142857142" y2="492" stroke="#ccc" stroke-width="1" />
<line x1="665" y1="42" x2="665" y2="492" stroke="#ccc" stroke-width="1" />
<line x1="65" y1="427.7142857142857" x2="665" y2="427.7142857142857" stroke="#ccc" stroke-width="1" />
<line x1="65" y1="363.42857142857144" x2="665" y2="363.42857142857144" stroke="#ccc" stroke-width="1" />
<line x1="65" y1="299.14285714285717" x2="665" y2="299.14285714285717" stroke="#ccc" stroke-width="1" />
<line x1="65" y1="234.8571428571429" x2="665" y2="234.8571428571429" stroke="#ccc" stroke-width="1" />
<line x1="65" y1="170.57142857142856" x2="665" y2="170.57142857142856" stroke="#ccc" stroke-width="1" />
<line x1="65" y1="106.28571428571433" x2="665" y2="106.28571428571433" stroke="#ccc" stroke-width="1" />
<line x1="65" y1="42" x2="665" y2="42" stroke="#ccc" stroke-width="1" />
<line x1="65" y1="492" x2="65" y2="497" stroke="black" stroke-width="1" />
<text x="65" y="507" font-size="10" text-anchor="middle">0</text>
<line x1="150.71428571428572" y1="492" x2="150.71428571428572" y2="497" stroke="black" stroke-width="1" />
<text x="150.71428571428572" y="507" font-size="10" text-anchor="middle">0.5</text>
<line x1="236.42857142857142" y1="492" x2="236.42857142857142" y2="497" stroke="black" stroke-width="1" />
<text x="236.42857142857142" y="507" font-size="10" text-anchor="middle">1</text>
<line x1="322.1428571428571" y1="492" x2="322.1428571428571" y2="497" stroke="black" stroke-width="1" />
<text x="322.1428571428571" y="507" font-size="10" text-anchor="middle">1.5</text>
<line x1="407.85714285714283" y1="492" x2="407.85714285714283" y2="497" stroke="black" stroke-width="1" />
<text x="407.85714285714283" y="507" font-size="10" text-anchor="middle">2</text>
<line x1="493.57142857142856" y1="492" x2="493.57142857142856" y2="497" stroke="black" stroke-width="1" />
<text x="493.57142857142856" y="507" font-size="10" text-anchor="middle">2.5</text>
<line x1="579.2857142857142" y1="492" x2="579.2857142857142" y2="497" stroke="black" stroke-width="1" />
<text x="579.2857142857142" y="507" font-size="10" text-anchor="middle">3</text>
<line x1="665" y1="492" x2="665" y2="497" stroke="black" stroke-width="1" />
<text x="665" y="507" font-size="10" text-anchor="middle">3.5</text>
<line x1="60" y1="492" x2="65" y2="492" stroke="black" stroke-width="1" />
<text x="57" y="495.5" font-size="10" text-anchor="end">0</text>
<line x1="60" y1="427.7142857142857" x2="65" y2="427.7142857142857" stroke="black" stroke-width="1" />
<text x="57" y="431.2142857142857" font-size="10" text-anchor="end">1</text>
<line x1="60" y1="363.42857142857144" x2="65" y2="363.42857142857144" stroke="black" stroke-width="1" />
<text x="57" y="366.92857142857144" font-size="10" text-anchor="end">2</text>
<line x1="60" y1="299.14285714285717" x2="65" y2="299.14285714285717" stroke="black" stroke-width="1" />
<text x="57" y="302.64285714285717" font-size="10" text-anchor="end">3</text>
<line x1="60" y1="234.8571428571429" x2="65" y2="234.8571428571429" stroke="black" stroke-width="1" />
<text x="57" y="238.3571428571429" font-size="10" text-anchor="end">4</text>
<line x1="60" y1="170.57142857142856" x2="65" y2="170.57142857142856" stroke="black" stroke-width="1" />
<text x="57" y="174.07142857142856" font-size="10" text-anchor="end">5</text>
<line x1="60" y1="106.28571428571433" x2="65" y2="106.28571428571433" stroke="black" stroke-width="1" />
<text x="57" y="109.78571428571433" font-size="10" text-anchor="end">6</text>
<line x1="60" y1="42" x2="65" y2="42" stroke="black" stroke-width="1" />
<text x="57" y="45.5" font-size="10" text-anchor="end">7</text>
<text x="385" y="534" font-size="14" text-anchor="middle">Progress Milestones (m)</text>
<text x="14" y="270.5" font-size="14" text-anchor="middle" transform="rotate(-90,14,270.5)">Cumulative Growth (m)</text>
<text x="385" y="21" font-size="16" text-anchor="middle">Marker Shapes</text>
<circle cx="236.42857142857142" cy="427.7142857142857" r="7" fill="steelblue" />
<circle cx="407.85714285714283" cy="427.7142857142857" r="7" fill="steelblue" />
<circle cx="579.2857142857142" cy="427.7142857142857" r="7" fill="steelblue" />
<rect x="229.42857142857142" y="356.42857142857144" width="14" height="14" fill="crimson" />
<rect x="400.85714285714283" y="356.42857142857144" width="14" height="14" fill="crimson" />
<rect x="572.2857142857142" y="356.42857142857144" width="14" height="14" fill="crimson" />
<path d="M236.42857142857142,292.0028571428572 L229.42857142857142,303.90285714285716 L243.42857142857142,303.90285714285716 Z" stroke="seagreen" stroke-width="0.5" fill="seagreen" />
<path d="M407.85714285714283,292.0028571428572 L400.85714285714283,303.90285714285716 L414.85714285714283,303.90285714285716 Z" stroke="seagreen" stroke-width="0.5" fill="seagreen" />
<path d="M579.2857142857142,292.0028571428572 L572.2857142857142,303.90285714285716 L586.2857142857142,303.90285714285716 Z" stroke="seagreen" stroke-width="0.5" fill="seagreen" />
<path d="M236.42857142857142,225.7571428571429 L245.5285714285714,234.8571428571429 L236.42857142857142,243.95714285714288 L227.32857142857142,234.8571428571429 Z" stroke="darkorange" stroke-width="0.5" fill="darkorange" />
<path d="M407.85714285714283,225.7571428571429 L416.95714285714286,234.8571428571429 L407.85714285714283,243.95714285714288 L398.7571428571428,234.8571428571429 Z" stroke="darkorange" stroke-width="0.5" fill="darkorange" />
<path d="M579.2857142857142,225.7571428571429 L588.3857142857142,234.8571428571429 L579.2857142857142,243.95714285714288 L570.1857142857142,234.8571428571429 Z" stroke="darkorange" stroke-width="0.5" fill="darkorange" />
<line x1="230.1285714285714" y1="164.27142857142854" x2="242.72857142857143" y2="176.87142857142857" stroke="purple" stroke-width="1.5" />
<line x1="230.1285714285714" y1="176.87142857142857" x2="242.72857142857143" y2="164.27142857142854" stroke="purple" stroke-width="1.5" />
<line x1="401.5571428571428" y1="164.27142857142854" x2="414.15714285714284" y2="176.87142857142857" stroke="purple" stroke-width="1.5" />
<line x1="401.5571428571428" y1="176.87142857142857" x2="414.15714285714284" y2="164.27142857142854" stroke="purple" stroke-width="1.5" />
<line x1="572.9857142857143" y1="164.27142857142854" x2="585.5857142857142" y2="176.87142857142857" stroke="purple" stroke-width="1.5" />
<line x1="572.9857142857143" y1="176.87142857142857" x2="585.5857142857142" y2="164.27142857142854" stroke="purple" stroke-width="1.5" />
<line x1="230.1285714285714" y1="106.28571428571433" x2="242.72857142857143" y2="106.28571428571433" stroke="saddlebrown" stroke-width="1.5" />
<line x1="236.42857142857142" y1="99.98571428571434" x2="236.42857142857142" y2="112.58571428571433" stroke="saddlebrown" stroke-width="1.5" />
<line x1="401.5571428571428" y1="106.28571428571433" x2="414.15714285714284" y2="106.28571428571433" stroke="saddlebrown" stroke-width="1.5" />
<line x1="407.85714285714283" y1="99.98571428571434" x2="407.85714285714283" y2="112.58571428571433" stroke="saddlebrown" stroke-width="1.5" />
<line x1="572.9857142857143" y1="106.28571428571433" x2="585.5857142857142" y2="106.28571428571433" stroke="saddlebrown" stroke-width="1.5" />
<line x1="579.2857142857142" y1="99.98571428571434" x2="579.2857142857142" y2="112.58571428571433" stroke="saddlebrown" stroke-width="1.5" />
<rect x="670" y="32" width="91" height="128" fill="white" />
<rect x="670" y="32" width="91" height="128" fill="none" stroke="black" stroke-width="1" />
<text x="700" y="47" font-size="12" text-anchor="start">Circle</text>
<circle cx="686" cy="43" r="5" fill="steelblue" />
<text x="700" y="65" font-size="12" text-anchor="start">Square</text>
<rect x="681" y="56" width="10" height="10" fill="crimson" />
<text x="700" y="83" font-size="12" text-anchor="start">Triangle</text>
<path d="M686,73.9 L681,82.4 L691,82.4 Z" stroke="seagreen" stroke-width="0.5" fill="seagreen" />
<text x="700" y="101" font-size="12" text-anchor="start">Diamond</text>
<path d="M686,90.5 L692.5,97 L686,103.5 L679.5,97 Z" stroke="darkorange" stroke-width="0.5" fill="darkorange" />
<text x="700" y="119" font-size="12" text-anchor="start">Cross</text>
<line x1="681.5" y1="110.5" x2="690.5" y2="119.5" stroke="purple" stroke-width="1.5" />
<line x1="681.5" y1="119.5" x2="690.5" y2="110.5" stroke="purple" stroke-width="1.5" />
<text x="700" y="137" font-size="12" text-anchor="start">Plus</text>
<line x1="681.5" y1="133" x2="690.5" y2="133" stroke="saddlebrown" stroke-width="1.5" />
<line x1="686" y1="128.5" x2="686" y2="137.5" stroke="saddlebrown" stroke-width="1.5" />
</svg>
