<svg xmlns="http://www.w3.org/2000/svg" width="679" height="541" fill="black">
<rect width="100%" height="100%" fill="white" />
<line x1="65" y1="492" x2="665" y2="492" stroke="black" stroke-width="1" />
<line x1="65" y1="42" x2="65" y2="492" stroke="black" stroke-width="1" />
<line x1="65" y1="42" x2="665" y2="42" stroke="black" stroke-width="1" />
<line x1="665" y1="42" x2="665" y2="492" stroke="black" stroke-width="1" />
<line x1="190" y1="42" x2="190" y2="492" stroke="#ccc" stroke-width="1" />
<line x1="315" y1="42" x2="315" y2="492" stroke="#ccc" stroke-width="1" />
<line x1="440" y1="42" x2="440" y2="492" stroke="#ccc" stroke-width="1" />
<line x1="565" y1="42" x2="565" y2="492" stroke="#ccc" stroke-width="1" />
<line x1="65" y1="402" x2="665" y2="402" stroke="#ccc" stroke-width="1" />
<line x1="65" y1="312" x2="665" y2="312" stroke="#ccc" stroke-width="1" />
<line x1="65" y1="222" x2="665" y2="222" stroke="#ccc" stroke-width="1" />
<line x1="65" y1="132" x2="665" y2="132" stroke="#ccc" stroke-width="1" />
<line x1="65" y1="42" x2="665" y2="42" stroke="#ccc" stroke-width="1" />
<line x1="65" y1="492" x2="65" y2="497" stroke="black" stroke-width="1" />
<text x="65" y="507" font-size="10" text-anchor="middle">0</text>
<line x1="190" y1="492" x2="190" y2="497" stroke="black" stroke-width="1" />
<text x="190" y="507" font-size="10" text-anchor="middle">2.5</text>
<line x1="315" y1="492" x2="315" y2="497" stroke="black" stroke-width="1" />
<text x="315" y="507" font-size="10" text-anchor="middle">5</text>
<line x1="440" y1="492" x2="440" y2="497" stroke="black" stroke-width="1" />
<text x="440" y="507" font-size="10" text-anchor="middle">7.5</text>
<line x1="565" y1="492" x2="565" y2="497" stroke="black" stroke-width="1" />
<text x="565" y="507" font-size="10" text-anchor="middle">10</text>
<line x1="60" y1="492" x2="65" y2="492" stroke="black" stroke-width="1" />
<text x="57" y="495.5" font-size="10" text-anchor="end">0</text>
<line x1="60" y1="402" x2="65" y2="402" stroke="black" stroke-width="1" />
<text x="57" y="405.5" font-size="10" text-anchor="end">5</text>
<line x1="60" y1="312" x2="65" y2="312" stroke="black" stroke-width="1" />
<text x="57" y="315.5" font-size="10" text-anchor="end">10</text>
<line x1="60" y1="222" x2="65" y2="222" stroke="black" stroke-width="1" />
<text x="57" y="225.5" font-size="10" text-anchor="end">15</text>
<line x1="60" y1="132" x2="65" y2="132" stroke="black" stroke-width="1" />
<text x="57" y="135.5" font-size="10" text-anchor="end">20</text>
<line x1="60" y1="42" x2="65" y2="42" stroke="black" stroke-width="1" />
<text x="57" y="45.5" font-size="10" text-anchor="end">25</text>
<text x="339.5" y="534" font-size="14" text-anchor="middle">Progress Milestones (m)</text>
<text x="14" y="270.5" font-size="14" text-anchor="middle" transform="rotate(-90,14,270.5)">Cumulative Growth (m)</text>
<text x="339.5" y="21" font-size="16" text-anchor="middle">Linear Trend Line</text>
<circle cx="115" cy="454.2" r="5" fill="steelblue" />
<circle cx="165" cy="421.8" r="5" fill="steelblue" />
<circle cx="215" cy="380.4" r="5" fill="steelblue" />
<circle cx="265" cy="351.6" r="5" fill="steelblue" />
<circle cx="315" cy="310.20000000000005" r="5" fill="steelblue" />
<circle cx="365" cy="270.59999999999997" r="5" fill="steelblue" />
<circle cx="415" cy="241.79999999999998" r="5" fill="steelblue" />
<circle cx="465" cy="200.39999999999998" r="5" fill="steelblue" />
<circle cx="515" cy="171.59999999999997" r="5" fill="steelblue" />
<circle cx="565" cy="137.40000000000003" r="5" fill="steelblue" />
<line x1="65" y1="489.72" x2="665" y2="62.69454545454539" stroke="crimson" stroke-width="1" />
<text x="75" y="62" font-size="12" text-anchor="start">y = 1.98x + 0.13  r = 1.00</text>
</svg>
