<svg xmlns="http://www.w3.org/2000/svg" width="720" height="570" fill="black">
<rect width="100%" height="100%" fill="white" />
<line x1="80" y1="500" x2="680" y2="500" stroke="black" stroke-width="1" />
<line x1="80" y1="50" x2="80" y2="500" stroke="black" stroke-width="1" />
<line x1="80" y1="50" x2="680" y2="50" stroke="black" stroke-width="1" />
<line x1="680" y1="50" x2="680" y2="500" stroke="black" stroke-width="1" />
<line x1="180" y1="50" x2="180" y2="500" stroke="#e0e0e0" stroke-width="1" />
<line x1="280" y1="50" x2="280" y2="500" stroke="#e0e0e0" stroke-width="1" />
<line x1="380" y1="50" x2="380" y2="500" stroke="#e0e0e0" stroke-width="1" />
<line x1="480" y1="50" x2="480" y2="500" stroke="#e0e0e0" stroke-width="1" />
<line x1="580" y1="50" x2="580" y2="500" stroke="#e0e0e0" stroke-width="1" />
<line x1="680" y1="50" x2="680" y2="500" stroke="#e0e0e0" stroke-width="1" />
<line x1="80" y1="410" x2="680" y2="410" stroke="#e0e0e0" stroke-width="1" />
<line x1="80" y1="320" x2="680" y2="320" stroke="#e0e0e0" stroke-width="1" />
<line x1="80" y1="230" x2="680" y2="230" stroke="#e0e0e0" stroke-width="1" />
<line x1="80" y1="140" x2="680" y2="140" stroke="#e0e0e0" stroke-width="1" />
<line x1="80" y1="50" x2="680" y2="50" stroke="#e0e0e0" stroke-width="1" />
<line x1="80" y1="500" x2="80" y2="505" stroke="black" stroke-width="1" />
<text x="80" y="523" font-size="18" text-anchor="middle">0</text>
<line x1="180" y1="500" x2="180" y2="505" stroke="black" stroke-width="1" />
<text x="180" y="523" font-size="18" text-anchor="middle">2</text>
<line x1="280" y1="500" x2="280" y2="505" stroke="black" stroke-width="1" />
<text x="280" y="523" font-size="18" text-anchor="middle">4</text>
<line x1="380" y1="500" x2="380" y2="505" stroke="black" stroke-width="1" />
<text x="380" y="523" font-size="18" text-anchor="middle">6</text>
<line x1="480" y1="500" x2="480" y2="505" stroke="black" stroke-width="1" />
<text x="480" y="523" font-size="18" text-anchor="middle">8</text>
<line x1="580" y1="500" x2="580" y2="505" stroke="black" stroke-width="1" />
<text x="580" y="523" font-size="18" text-anchor="middle">10</text>
<line x1="680" y1="500" x2="680" y2="505" stroke="black" stroke-width="1" />
<text x="680" y="523" font-size="18" text-anchor="middle">12</text>
<line x1="75" y1="500" x2="80" y2="500" stroke="black" stroke-width="1" />
<text x="72" y="506.3" font-size="18" text-anchor="end">0</text>
<line x1="75" y1="410" x2="80" y2="410" stroke="black" stroke-width="1" />
<text x="72" y="416.3" font-size="18" text-anchor="end">5</text>
<line x1="75" y1="320" x2="80" y2="320" stroke="black" stroke-width="1" />
<text x="72" y="326.3" font-size="18" text-anchor="end">10</text>
<line x1="75" y1="230" x2="80" y2="230" stroke="black" stroke-width="1" />
<text x="72" y="236.3" font-size="18" text-anchor="end">15</text>
<line x1="75" y1="140" x2="80" y2="140" stroke="black" stroke-width="1" />
<text x="72" y="146.3" font-size="18" text-anchor="end">20</text>
<line x1="75" y1="50" x2="80" y2="50" stroke="black" stroke-width="1" />
<text x="72" y="56.3" font-size="18" text-anchor="end">25</text>
<text x="360" y="554" font-size="18" text-anchor="middle">Progress Milestones (m)</text>
<text x="35" y="285" font-size="18" text-anchor="middle" transform="rotate(-90,35,285)">Cumulative Growth (m)</text>
<text x="360" y="25" font-size="18" text-anchor="middle">Linear Trend Line</text>
<circle cx="130" cy="462.2" r="5" fill="steelblue" />
<circle cx="180" cy="429.8" r="5" fill="steelblue" />
<circle cx="230" cy="388.4" r="5" fill="steelblue" />
<circle cx="280" cy="359.6" r="5" fill="steelblue" />
<circle cx="330" cy="318.20000000000005" r="5" fill="steelblue" />
<circle cx="380" cy="278.59999999999997" r="5" fill="steelblue" />
<circle cx="430" cy="249.79999999999998" r="5" fill="steelblue" />
<circle cx="480" cy="208.39999999999998" r="5" fill="steelblue" />
<circle cx="530" cy="179.59999999999997" r="5" fill="steelblue" />
<circle cx="580" cy="145.40000000000003" r="5" fill="steelblue" />
<line x1="80" y1="497.72" x2="680" y2="70.69454545454539" stroke="crimson" stroke-width="2" />
<text x="90" y="70" font-size="16" text-anchor="start">y = 1.98x + 0.13  r = 1.00</text>
</svg>
